<svg width="100" height="100" viewBox="0 0 100 100" fill="none" xmlns="http://www.w3.org/2000/svg">
<g id="Group 3016">
<g id="icon-bit-300" clip-path="url(#clip0_377:3223)">
<path id="Vector" d="M98.4522 29.1921L84.9168 4.00311H15.0789L1.54395 29.1921L49.9979 96.0001L98.4522 29.1921Z" fill="#BF2717"/>
<path id="Vector_2" d="M50.0021 95.9969L1.54785 29.1888H98.4563L50.0021 95.9969Z" fill="#F7603E"/>
<path id="Vector_3" d="M50.002 29.1888V95.9969L98.4561 29.1888H50.002Z" fill="#BF2717"/>
<path id="Vector_4" d="M50.0026 95.9969L32.543 29.1888H67.462L50.0026 95.9969Z" fill="#F53000"/>
<path id="Vector_5" d="M50.0026 4L32.543 29.1888H67.462L50.0026 4Z" fill="#F7603E"/>
<path id="Vector_6" d="M50.002 4V29.1888H67.4612L50.002 4Z" fill="#BF2717"/>
<path id="Vector_7" d="M15.0832 4L1.54785 29.1888H32.5426L15.0832 4Z" fill="#F53000"/>
<path id="Vector_8" d="M67.4613 29.1888L50.002 4H84.9208L67.4613 29.1888Z" fill="#F7603E"/>
<path id="Vector_9" d="M84.9205 4L67.4609 29.1888H98.4557L84.9205 4Z" fill="#F53000"/>
<path id="Vector_10" d="M50.002 95.9969L67.4612 29.1888H50.002V95.9969Z" fill="#F7603E"/>
</g>
</g>
<defs>
<clipPath id="clip0_377:3223">
<rect width="100" height="92" fill="white" transform="translate(0 4)"/>
</clipPath>
</defs>
</svg>
