<svg width="100" height="139" viewBox="0 0 100 139" fill="none" xmlns="http://www.w3.org/2000/svg">
<g id="Group 3003">
<path id="50" d="M38.2328 122.609L39.2172 113.938H48.7797V116.762H41.9945L41.5727 120.43C42.3773 120 43.2328 119.785 44.1391 119.785C45.7641 119.785 47.0375 120.289 47.9594 121.297C48.8813 122.305 49.3422 123.715 49.3422 125.527C49.3422 126.629 49.1078 127.617 48.6391 128.492C48.1781 129.359 47.5141 130.035 46.6469 130.52C45.7797 130.996 44.7563 131.234 43.5766 131.234C42.5453 131.234 41.5883 131.027 40.7055 130.613C39.8227 130.191 39.1234 129.602 38.6078 128.844C38.1 128.086 37.8305 127.223 37.7992 126.254H41.1508C41.2211 126.965 41.4672 127.52 41.8891 127.918C42.3188 128.309 42.8773 128.504 43.5648 128.504C44.3305 128.504 44.9203 128.23 45.3344 127.684C45.7484 127.129 45.9555 126.348 45.9555 125.34C45.9555 124.371 45.7172 123.629 45.2406 123.113C44.7641 122.598 44.0883 122.34 43.2133 122.34C42.4086 122.34 41.7563 122.551 41.2563 122.973L40.9281 123.277L38.2328 122.609ZM62.9945 123.945C62.9945 126.305 62.5063 128.109 61.5297 129.359C60.5531 130.609 59.1234 131.234 57.2406 131.234C55.3813 131.234 53.9594 130.621 52.975 129.395C51.9906 128.168 51.4867 126.41 51.4633 124.121V120.98C51.4633 118.598 51.9555 116.789 52.9398 115.555C53.932 114.32 55.3578 113.703 57.2172 113.703C59.0766 113.703 60.4984 114.316 61.4828 115.543C62.4672 116.762 62.9711 118.516 62.9945 120.805V123.945ZM59.6078 120.5C59.6078 119.086 59.4125 118.059 59.0219 117.418C58.6391 116.77 58.0375 116.445 57.2172 116.445C56.4203 116.445 55.8305 116.754 55.4477 117.371C55.0727 117.98 54.8734 118.938 54.85 120.242V124.391C54.85 125.781 55.0375 126.816 55.4125 127.496C55.7953 128.168 56.4047 128.504 57.2406 128.504C58.0688 128.504 58.6664 128.18 59.0336 127.531C59.4008 126.883 59.5922 125.891 59.6078 124.555V120.5Z" fill="black"/>
<g id="Group">
<path id="Vector" d="M75 0H25L50 30.6783L75 0Z" fill="#D5B4E8"/>
<path id="Vector_2" d="M50 30.6783V85.0324L100 30.6783H50Z" fill="#6D2C93"/>
<path id="Vector_3" d="M100 30.6783L75 0L50 30.6783H100Z" fill="#933EC5"/>
<path id="Vector_4" d="M25 0L0 30.6783H50L25 0Z" fill="#B87FD9"/>
<path id="Vector_5" d="M0 30.6783L50 85.0324V30.6783H0Z" fill="#933EC5"/>
</g>
</g>
</svg>
