<svg width="100" height="154" viewBox="0 0 100 154" fill="none" xmlns="http://www.w3.org/2000/svg">
<g id="Group 3004">
<path id="100" d="M39.0648 146H35.6781V132.945L31.6352 134.199V131.445L38.7016 128.914H39.0648V146ZM56.1039 138.945C56.1039 141.305 55.6156 143.109 54.6391 144.359C53.6625 145.609 52.2328 146.234 50.35 146.234C48.4906 146.234 47.0688 145.621 46.0844 144.395C45.1 143.168 44.5961 141.41 44.5727 139.121V135.98C44.5727 133.598 45.0648 131.789 46.0492 130.555C47.0414 129.32 48.4672 128.703 50.3266 128.703C52.1859 128.703 53.6078 129.316 54.5922 130.543C55.5766 131.762 56.0805 133.516 56.1039 135.805V138.945ZM52.7172 135.5C52.7172 134.086 52.5219 133.059 52.1313 132.418C51.7484 131.77 51.1469 131.445 50.3266 131.445C49.5297 131.445 48.9398 131.754 48.557 132.371C48.182 132.98 47.9828 133.938 47.9594 135.242V139.391C47.9594 140.781 48.1469 141.816 48.5219 142.496C48.9047 143.168 49.5141 143.504 50.35 143.504C51.1781 143.504 51.7758 143.18 52.143 142.531C52.5102 141.883 52.7016 140.891 52.7172 139.555V135.5ZM69.8852 138.945C69.8852 141.305 69.3969 143.109 68.4203 144.359C67.4438 145.609 66.0141 146.234 64.1313 146.234C62.2719 146.234 60.85 145.621 59.8656 144.395C58.8813 143.168 58.3773 141.41 58.3539 139.121V135.98C58.3539 133.598 58.8461 131.789 59.8305 130.555C60.8227 129.32 62.2484 128.703 64.1078 128.703C65.9672 128.703 67.3891 129.316 68.3734 130.543C69.3578 131.762 69.8617 133.516 69.8852 135.805V138.945ZM66.4984 135.5C66.4984 134.086 66.3031 133.059 65.9125 132.418C65.5297 131.77 64.9281 131.445 64.1078 131.445C63.3109 131.445 62.7211 131.754 62.3383 132.371C61.9633 132.98 61.7641 133.938 61.7406 135.242V139.391C61.7406 140.781 61.9281 141.816 62.3031 142.496C62.6859 143.168 63.2953 143.504 64.1313 143.504C64.9594 143.504 65.557 143.18 65.9242 142.531C66.2914 141.883 66.4828 140.891 66.4984 139.555V135.5Z" fill="black"/>
<g id="icon-bit-100" clip-path="url(#clip0_362:1758)">
<path id="Vector" d="M70.3377 33.6206L50 92.2413L100 33.6206H70.3377Z" fill="#FFE182"/>
<g id="Group">
<path id="Vector_2" d="M20.6896 7.75861L0 33.6208H29.6623L20.6896 7.75861Z" fill="#FFCD73"/>
<path id="Vector_3" d="M70.3379 33.6208H100L79.3106 7.75861L70.3379 33.6208Z" fill="#FFCD73"/>
<path id="Vector_4" d="M70.3375 33.6208L49.9998 7.75861L29.6621 33.6208H70.3375Z" fill="#FFCD73"/>
</g>
<path id="Vector_5" d="M50.0008 7.75861H20.6904L29.6631 33.6208L50.0008 7.75861Z" fill="#FFAA64"/>
<path id="Vector_6" d="M79.3103 7.75861H50L70.3377 33.6208L79.3103 7.75861Z" fill="#FFE182"/>
<path id="Vector_7" d="M29.6621 33.6206L49.9998 92.2413L70.3375 33.6206H29.6621Z" fill="#FFAA64"/>
<path id="Vector_8" d="M0 33.6206L50 92.2413L29.6623 33.6206H0Z" fill="#FF8C5A"/>
</g>
</g>
<defs>
<clipPath id="clip0_362:1758">
<rect width="100" height="100" fill="white"/>
</clipPath>
</defs>
</svg>
