<svg width="90" height="132" viewBox="0 0 90 132" fill="none" xmlns="http://www.w3.org/2000/svg">
<g id="Group 3006">
<path id="300" d="M30.2836 113.969H32.0883C32.9477 113.969 33.5844 113.754 33.9984 113.324C34.4125 112.895 34.6195 112.324 34.6195 111.613C34.6195 110.926 34.4125 110.391 33.9984 110.008C33.5922 109.625 33.0297 109.434 32.3109 109.434C31.6625 109.434 31.1195 109.613 30.682 109.973C30.2445 110.324 30.0258 110.785 30.0258 111.355H26.6391C26.6391 110.465 26.8773 109.668 27.3539 108.965C27.8383 108.254 28.5102 107.699 29.3695 107.301C30.2367 106.902 31.1898 106.703 32.2289 106.703C34.0336 106.703 35.4477 107.137 36.4711 108.004C37.4945 108.863 38.0063 110.051 38.0063 111.566C38.0063 112.348 37.768 113.066 37.2914 113.723C36.8148 114.379 36.1898 114.883 35.4164 115.234C36.3773 115.578 37.0922 116.094 37.5609 116.781C38.0375 117.469 38.2758 118.281 38.2758 119.219C38.2758 120.734 37.7211 121.949 36.6117 122.863C35.5102 123.777 34.0492 124.234 32.2289 124.234C30.5258 124.234 29.1313 123.785 28.0453 122.887C26.9672 121.988 26.4281 120.801 26.4281 119.324H29.8148C29.8148 119.965 30.0531 120.488 30.5297 120.895C31.0141 121.301 31.6078 121.504 32.3109 121.504C33.1156 121.504 33.7445 121.293 34.1977 120.871C34.6586 120.441 34.8891 119.875 34.8891 119.172C34.8891 117.469 33.9516 116.617 32.0766 116.617H30.2836V113.969ZM52.1039 116.945C52.1039 119.305 51.6156 121.109 50.6391 122.359C49.6625 123.609 48.2328 124.234 46.35 124.234C44.4906 124.234 43.0688 123.621 42.0844 122.395C41.1 121.168 40.5961 119.41 40.5727 117.121V113.98C40.5727 111.598 41.0648 109.789 42.0492 108.555C43.0414 107.32 44.4672 106.703 46.3266 106.703C48.1859 106.703 49.6078 107.316 50.5922 108.543C51.5766 109.762 52.0805 111.516 52.1039 113.805V116.945ZM48.7172 113.5C48.7172 112.086 48.5219 111.059 48.1313 110.418C47.7484 109.77 47.1469 109.445 46.3266 109.445C45.5297 109.445 44.9398 109.754 44.557 110.371C44.182 110.98 43.9828 111.938 43.9594 113.242V117.391C43.9594 118.781 44.1469 119.816 44.5219 120.496C44.9047 121.168 45.5141 121.504 46.35 121.504C47.1781 121.504 47.7758 121.18 48.143 120.531C48.5102 119.883 48.7016 118.891 48.7172 117.555V113.5ZM65.8852 116.945C65.8852 119.305 65.3969 121.109 64.4203 122.359C63.4438 123.609 62.0141 124.234 60.1313 124.234C58.2719 124.234 56.85 123.621 55.8656 122.395C54.8813 121.168 54.3773 119.41 54.3539 117.121V113.98C54.3539 111.598 54.8461 109.789 55.8305 108.555C56.8227 107.32 58.2484 106.703 60.1078 106.703C61.9672 106.703 63.3891 107.316 64.3734 108.543C65.3578 109.762 65.8617 111.516 65.8852 113.805V116.945ZM62.4984 113.5C62.4984 112.086 62.3031 111.059 61.9125 110.418C61.5297 109.77 60.9281 109.445 60.1078 109.445C59.3109 109.445 58.7211 109.754 58.3383 110.371C57.9633 110.98 57.7641 111.938 57.7406 113.242V117.391C57.7406 118.781 57.9281 119.816 58.3031 120.496C58.6859 121.168 59.2953 121.504 60.1313 121.504C60.9594 121.504 61.557 121.18 61.9242 120.531C62.2914 119.883 62.4828 118.891 62.4984 117.555V113.5Z" fill="black"/>
<g id="icon-bit-300" clip-path="url(#clip0_362:1773)">
<path id="Vector" d="M88.607 24.6444L76.4252 0.00305176H13.5711L1.38965 24.6444L44.9982 90.0001L88.607 24.6444Z" fill="#BF2717"/>
<path id="Vector_2" d="M45.0024 89.997L1.39355 24.6412H88.6111L45.0024 89.997Z" fill="#F7603E"/>
<path id="Vector_3" d="M45.002 24.6412V89.997L88.6106 24.6412H45.002Z" fill="#BF2717"/>
<path id="Vector_4" d="M45.0027 89.997L29.2891 24.6412H60.7162L45.0027 89.997Z" fill="#F53000"/>
<path id="Vector_5" d="M45.0027 0L29.2891 24.6412H60.7162L45.0027 0Z" fill="#F7603E"/>
<path id="Vector_6" d="M45.002 0V24.6412H60.7153L45.002 0Z" fill="#BF2717"/>
<path id="Vector_7" d="M13.5754 0L1.39355 24.6412H29.2888L13.5754 0Z" fill="#F53000"/>
<path id="Vector_8" d="M60.7153 24.6412L45.002 0H76.4289L60.7153 24.6412Z" fill="#F7603E"/>
<path id="Vector_9" d="M76.4285 0L60.7148 24.6412H88.6101L76.4285 0Z" fill="#F53000"/>
<path id="Vector_10" d="M45.002 89.997L60.7153 24.6412H45.002V89.997Z" fill="#F7603E"/>
</g>
</g>
<defs>
<clipPath id="clip0_362:1773">
<rect width="90" height="90" fill="white"/>
</clipPath>
</defs>
</svg>
