<svg width="100" height="100" viewBox="0 0 100 100" fill="none" xmlns="http://www.w3.org/2000/svg">
<g id="Group 3014">
<g id="icon-bit-1" clip-path="url(#clip0_377:3221)">
<path id="Vector" d="M69.3271 21.2585H31.6719V77.7412H69.3271V21.2585Z" fill="#FF6464"/>
<path id="Vector_2" d="M69.3271 4H31.6719V21.2585H69.3271V4Z" fill="#FFB1B1"/>
<path id="Vector_3" d="M69.3271 77.7415H31.6719V95.0001H69.3271V77.7415Z" fill="#D2555A"/>
<path id="Vector_4" d="M86.5867 21.2585H69.3281V77.7412H86.5867V21.2585Z" fill="#FFB1B1"/>
<path id="Vector_5" d="M69.3281 4L86.5867 21.2585H69.3281V4Z" fill="#FFD8D8"/>
<path id="Vector_6" d="M86.5867 77.7415L69.3281 95.0001V77.7415H86.5867Z" fill="#FF8B8B"/>
<path id="Vector_7" d="M31.6726 21.2585H14.4141V77.7412H31.6726V21.2585Z" fill="#D2555A"/>
<path id="Vector_8" d="M31.6726 95.0001L14.4141 77.7415H31.6726V95.0001Z" fill="#FF6464"/>
<path id="Vector_9" d="M14.4141 21.2585L31.6726 4V21.2585H14.4141Z" fill="#FF8B8B"/>
<g id="Group">
<path id="Vector_10" d="M74.461 21.6542C71.386 20.953 68.9654 18.5324 68.2646 15.4574C68.2118 15.2259 67.9053 15.2259 67.8525 15.4574C67.1515 18.5324 64.7307 20.953 61.6561 21.6542C61.4245 21.7069 61.4245 22.0135 61.6561 22.0663C64.7311 22.7673 67.1517 25.1877 67.8525 28.2627C67.9053 28.4943 68.2118 28.4943 68.2646 28.2627C68.9656 25.1877 71.3864 22.7671 74.461 22.0663C74.6924 22.0137 74.6924 21.7069 74.461 21.6542Z" fill="white"/>
<path id="Vector_11" d="M65.7063 31.3877C63.2927 30.7625 61.3922 28.8623 60.7673 26.4487C60.7045 26.2062 60.3907 26.2062 60.3279 26.4487C59.7028 28.8623 57.8025 30.7628 55.3889 31.3877C55.1464 31.4505 55.1464 31.7643 55.3889 31.8271C57.8025 32.4522 59.703 34.3525 60.3279 36.7661C60.3907 37.0086 60.7045 37.0086 60.7673 36.7661C61.3925 34.3523 63.2927 32.452 65.7063 31.8271C65.9489 31.7643 65.9489 31.4505 65.7063 31.3877Z" fill="white"/>
</g>
</g>
</g>
<defs>
<clipPath id="clip0_377:3221">
<rect width="91" height="91" fill="white" transform="translate(5 4)"/>
</clipPath>
</defs>
</svg>
