<svg width="100" height="154" viewBox="0 0 100 154" fill="none" xmlns="http://www.w3.org/2000/svg">
<g id="Group 3002">
<path id="1" d="M55.8461 146H52.4594V132.945L48.4164 134.199V131.445L55.4828 128.914H55.8461V146Z" fill="black"/>
<g id="icon-bit-1" clip-path="url(#clip0_362:1757)">
<path id="Vector" d="M70.6889 18.9654H29.3096V81.0343H70.6889V18.9654Z" fill="#FF6464"/>
<path id="Vector_2" d="M70.6889 0H29.3096V18.9654H70.6889V0Z" fill="#FFB1B1"/>
<path id="Vector_3" d="M70.6889 81.0347H29.3096V100H70.6889V81.0347Z" fill="#D2555A"/>
<path id="Vector_4" d="M89.6559 18.9654H70.6904V81.0343H89.6559V18.9654Z" fill="#FFB1B1"/>
<path id="Vector_5" d="M70.6904 0L89.6559 18.9654H70.6904V0Z" fill="#FFD8D8"/>
<path id="Vector_6" d="M89.6559 81.0347L70.6904 100V81.0347H89.6559Z" fill="#FF8B8B"/>
<path id="Vector_7" d="M29.3102 18.9654H10.3447V81.0343H29.3102V18.9654Z" fill="#D2555A"/>
<path id="Vector_8" d="M29.3102 100L10.3447 81.0347H29.3102V100Z" fill="#FF6464"/>
<path id="Vector_9" d="M10.3447 18.9654L29.3102 0V18.9654H10.3447Z" fill="#FF8B8B"/>
<g id="Group">
<path id="Vector_10" d="M76.3315 19.4002C72.9524 18.6297 70.2924 15.9697 69.5223 12.5906C69.4643 12.3361 69.1274 12.3361 69.0694 12.5906C68.2991 15.9697 65.6389 18.6297 62.2602 19.4002C62.0057 19.4582 62.0057 19.7951 62.2602 19.8531C65.6393 20.6234 68.2993 23.2832 69.0694 26.6623C69.1274 26.9168 69.4643 26.9168 69.5223 26.6623C70.2926 23.2832 72.9528 20.6232 76.3315 19.8531C76.5858 19.7953 76.5858 19.4582 76.3315 19.4002Z" fill="white"/>
<path id="Vector_11" d="M66.7106 30.0965C64.0582 29.4093 61.9697 27.3213 61.283 24.6689C61.2141 24.4025 60.8691 24.4025 60.8002 24.6689C60.1133 27.3213 58.025 29.4097 55.3727 30.0965C55.1062 30.1654 55.1062 30.5103 55.3727 30.5793C58.025 31.2662 60.1135 33.3545 60.8002 36.0068C60.8691 36.2732 61.2141 36.2732 61.283 36.0068C61.9701 33.3543 64.0582 31.266 66.7106 30.5793C66.9772 30.5103 66.9772 30.1654 66.7106 30.0965Z" fill="white"/>
</g>
</g>
</g>
<defs>
<clipPath id="clip0_362:1757">
<rect width="100" height="100" fill="white"/>
</clipPath>
</defs>
</svg>
