<svg width="110" height="152" viewBox="0 0 110 152" fill="none" xmlns="http://www.w3.org/2000/svg">
<g id="Group 3005">
<path id="500" d="M36.3422 135.609L37.3266 126.938H46.8891V129.762H40.1039L39.682 133.43C40.4867 133 41.3422 132.785 42.2484 132.785C43.8734 132.785 45.1469 133.289 46.0688 134.297C46.9906 135.305 47.4516 136.715 47.4516 138.527C47.4516 139.629 47.2172 140.617 46.7484 141.492C46.2875 142.359 45.6234 143.035 44.7563 143.52C43.8891 143.996 42.8656 144.234 41.6859 144.234C40.6547 144.234 39.6977 144.027 38.8148 143.613C37.932 143.191 37.2328 142.602 36.7172 141.844C36.2094 141.086 35.9398 140.223 35.9086 139.254H39.2602C39.3305 139.965 39.5766 140.52 39.9984 140.918C40.4281 141.309 40.9867 141.504 41.6742 141.504C42.4398 141.504 43.0297 141.23 43.4438 140.684C43.8578 140.129 44.0648 139.348 44.0648 138.34C44.0648 137.371 43.8266 136.629 43.35 136.113C42.8734 135.598 42.1977 135.34 41.3227 135.34C40.518 135.34 39.8656 135.551 39.3656 135.973L39.0375 136.277L36.3422 135.609ZM61.1039 136.945C61.1039 139.305 60.6156 141.109 59.6391 142.359C58.6625 143.609 57.2328 144.234 55.35 144.234C53.4906 144.234 52.0688 143.621 51.0844 142.395C50.1 141.168 49.5961 139.41 49.5727 137.121V133.98C49.5727 131.598 50.0648 129.789 51.0492 128.555C52.0414 127.32 53.4672 126.703 55.3266 126.703C57.1859 126.703 58.6078 127.316 59.5922 128.543C60.5766 129.762 61.0805 131.516 61.1039 133.805V136.945ZM57.7172 133.5C57.7172 132.086 57.5219 131.059 57.1313 130.418C56.7484 129.77 56.1469 129.445 55.3266 129.445C54.5297 129.445 53.9398 129.754 53.557 130.371C53.182 130.98 52.9828 131.938 52.9594 133.242V137.391C52.9594 138.781 53.1469 139.816 53.5219 140.496C53.9047 141.168 54.5141 141.504 55.35 141.504C56.1781 141.504 56.7758 141.18 57.143 140.531C57.5102 139.883 57.7016 138.891 57.7172 137.555V133.5ZM74.8852 136.945C74.8852 139.305 74.3969 141.109 73.4203 142.359C72.4438 143.609 71.0141 144.234 69.1313 144.234C67.2719 144.234 65.85 143.621 64.8656 142.395C63.8813 141.168 63.3773 139.41 63.3539 137.121V133.98C63.3539 131.598 63.8461 129.789 64.8305 128.555C65.8227 127.32 67.2484 126.703 69.1078 126.703C70.9672 126.703 72.3891 127.316 73.3734 128.543C74.3578 129.762 74.8617 131.516 74.8852 133.805V136.945ZM71.4984 133.5C71.4984 132.086 71.3031 131.059 70.9125 130.418C70.5297 129.77 69.9281 129.445 69.1078 129.445C68.3109 129.445 67.7211 129.754 67.3383 130.371C66.9633 130.98 66.7641 131.938 66.7406 133.242V137.391C66.7406 138.781 66.9281 139.816 67.3031 140.496C67.6859 141.168 68.2953 141.504 69.1313 141.504C69.9594 141.504 70.557 141.18 70.9242 140.531C71.2914 139.883 71.4828 138.891 71.4984 137.555V133.5Z" fill="black"/>
<g id="icon-bit-500" clip-path="url(#clip0_362:1772)">
<path id="Vector" d="M55.0007 110C52.8102 110 50.7324 109.029 49.3258 107.35L9.09891 59.2993C6.90214 56.6763 6.78999 52.8899 8.82735 50.1418L23.7192 30.0479C25.1151 28.165 27.3207 27.0538 29.6653 27.0538H80.3362C82.6807 27.0538 84.8863 28.1648 86.2822 30.0479L101.174 50.1418C103.211 52.8901 103.099 56.6763 100.903 59.2993L60.6754 107.35C59.2692 109.03 57.1915 110 55.0007 110Z" fill="#AADDE6"/>
<g id="Group">
<path id="Vector_2" d="M97.9882 7.63705C95.3525 9.43852 93.7079 11.0829 91.9064 13.7186C91.6106 14.1515 90.9716 14.1515 90.6758 13.7186C88.8745 11.0829 87.2299 9.43852 84.5942 7.63705C84.1613 7.34121 84.1613 6.70227 84.5942 6.40643C87.2299 4.60496 88.8743 2.96055 90.6758 0.324844C90.9716 -0.108281 91.6106 -0.108281 91.9064 0.324844C93.7079 2.96055 95.3525 4.60496 97.9882 6.40643C98.4211 6.70248 98.4211 7.34121 97.9882 7.63705Z" fill="#FFC529"/>
<path id="Vector_3" d="M67.6181 17.2062L63.7522 13.3407C63.4615 13.05 63.4615 12.5784 63.7522 12.2875L67.6179 8.42187C67.9086 8.13119 68.3801 8.13119 68.6708 8.42187L72.5365 12.2873C72.8272 12.578 72.8272 13.0496 72.5365 13.3403L68.671 17.2057C68.3804 17.4968 67.9088 17.4968 67.6181 17.2062Z" fill="#FFC529"/>
</g>
<path id="Vector_4" d="M102.621 54.4443C102.6 52.9333 102.123 51.4247 101.173 50.1418L86.2808 30.0478C84.885 28.1649 82.6794 27.0537 80.3348 27.0537H29.6641C27.3195 27.0537 25.1139 28.1647 23.7181 30.0478L8.82619 50.1416C7.87551 51.4245 7.39898 52.9329 7.37793 54.4441H102.621V54.4443Z" fill="#C7F7F9"/>
<path id="Vector_5" d="M73.5405 53.9752L88.2735 32.7348L86.2821 30.0478C84.8862 28.1649 82.6806 27.0537 80.336 27.0537H54.8672L73.5405 53.9752Z" fill="#DCFFFF"/>
<path id="Vector_6" d="M86.6706 27.7006C84.0347 29.502 82.3905 31.1467 80.5888 33.7822C80.293 34.2151 79.654 34.2151 79.3582 33.7822C77.5567 31.1465 75.9123 29.502 73.2768 27.7006C72.8439 27.4047 72.8439 26.7658 73.2768 26.4699C75.9125 24.6687 77.5567 23.0242 79.3582 20.3885C79.654 19.9556 80.293 19.9556 80.5888 20.3885C82.3903 23.0242 84.0345 24.6687 86.6704 26.4699C87.1035 26.7658 87.1037 27.4045 86.6706 27.7006Z" fill="#FFC529"/>
<path id="Vector_7" d="M36.2797 53.9752L54.9528 27.0537H29.6646C27.3201 27.0537 25.1145 28.1647 23.7186 30.0478L21.6338 32.8605L36.2797 53.9752Z" fill="#DCFFFF"/>
<path id="Vector_8" opacity="0.1" d="M56.3235 107.35L16.0966 59.2993C13.8998 56.6763 13.7879 52.8899 15.825 50.1418L30.7169 30.0479C32.1128 28.165 34.3184 27.0538 36.663 27.0538H29.6642C27.3196 27.0538 25.114 28.1648 23.7182 30.0479L8.82629 50.1418C6.78914 52.8901 6.90108 56.6763 9.09785 59.2993L49.3248 107.35C50.7309 109.029 52.8091 110 54.9997 110C56.2354 110 57.4353 109.691 58.499 109.12C57.6773 108.679 56.9367 108.082 56.3235 107.35Z" fill="black"/>
<path id="Vector_9" d="M36.3838 54.4445L52.3871 109.521C53.2127 109.833 54.0962 110 55 110C55.9038 110 56.7869 109.833 57.6129 109.521L73.6162 54.4445H36.3838Z" fill="#BDEAEF"/>
</g>
</g>
<defs>
<clipPath id="clip0_362:1772">
<rect width="110" height="110" fill="white"/>
</clipPath>
</defs>
</svg>
