<svg width="100" height="100" viewBox="0 0 100 100" fill="none" xmlns="http://www.w3.org/2000/svg">
<g id="Group 3015">
<g id="Group 3013">
<path id="Vector" d="M98.9961 35.3492C98.9603 36.2066 98.6733 37.0518 98.1438 37.7199C97.169 38.9465 53.9857 93.3376 52.8083 94.8209C52.1837 95.6085 51.3419 96 50.5 96C49.6581 96 48.8161 95.6085 48.1917 94.8209C47.2168 93.5943 4.03366 39.203 2.85621 37.7199C2.32669 37.0518 2.03967 36.2069 2.00386 35.3492C1.96805 34.4892 2.18119 33.614 2.6516 32.8888C13.9423 15.4614 9.77714 21.8855 21.0655 4.46562C21.3651 4.00454 21.747 3.63791 22.1774 3.38633C22.6079 3.13452 23.0847 3 23.5785 3H77.4213C77.915 3 78.3919 3.13452 78.8223 3.38633C79.2528 3.63813 79.6347 4.00454 79.9342 4.46562C91.2226 21.8855 87.0575 15.4616 98.3482 32.8888C98.819 33.614 99.0321 34.4892 98.9961 35.3492Z" fill="#2EE6E6"/>
<path id="Vector_2" d="M98.9961 33.6102C98.9603 34.4216 98.6733 35.2213 98.1438 35.8535C97.169 37.0142 53.9858 88.4807 52.8083 89.8843C52.1837 90.6296 51.3419 91 50.5 91V3H77.4213C77.9151 3 78.3919 3.12729 78.8223 3.36556C79.2528 3.60382 79.6347 3.95053 79.9342 4.38682C91.2228 20.87 87.0575 14.7916 98.3482 31.2818C98.819 31.9684 99.0321 32.7965 98.9961 33.6102Z" fill="#21A5A5"/>
<path id="Vector_3" d="M99 33C98.9642 33.8907 98.6771 34.7686 98.1476 35.4626C97.1728 36.7367 53.986 93.2344 52.8085 94.7752C52.1838 95.5934 51.342 96 50.5 96C49.658 96 48.816 95.5934 48.1915 94.7752C47.2165 93.5011 4.02997 37.0031 2.85242 35.4626C2.32285 34.7686 2.03581 33.8909 2 33H99Z" fill="#33FFFF"/>
<path id="Vector_4" d="M99 33C98.9638 33.8907 98.6738 34.7686 98.1388 35.4626C97.1539 36.7367 53.522 93.2344 52.3323 94.7752C51.7012 95.5934 50.8507 96 50 96V33.0002L99 33Z" fill="#26BFBF"/>
<path id="Vector_5" d="M78.6301 3.34633C78.2026 4.60442 69.3464 30.7441 68.921 32H32.0793C31.6518 30.7419 22.7956 4.60222 22.3701 3.34633C22.8018 3.11839 23.2775 3 23.7616 3H77.2384C77.7226 2.9998 78.1962 3.11839 78.6301 3.34633Z" fill="#33FFFF"/>
<g id="Group">
<path id="Vector_6" d="M78.8225 3.36632C78.392 4.69627 69.4752 32.3289 69.0469 33.6565H50.5V3H77.4213C77.9088 3 78.3856 3.12536 78.8225 3.36632Z" fill="#2EE6E6"/>
<path id="Vector_7" d="M68.9303 32L50.5003 96L32.0703 32H68.9303Z" fill="#2EE6E6"/>
</g>
<path id="Vector_8" d="M50.5 3L32 33H69L50.5 3Z" fill="#26BFBF"/>
</g>
</g>
</svg>
