<?xml version="1.0" encoding="iso-8859-1"?>
<!-- Generator: Adobe Illustrator 18.0.0, SVG Export Plug-In . SVG Version: 6.00 Build 0)  -->
<!DOCTYPE svg PUBLIC "-//W3C//DTD SVG 1.1//EN" "http://www.w3.org/Graphics/SVG/1.1/DTD/svg11.dtd">
<svg version="1.1" id="Capa_1" xmlns="http://www.w3.org/2000/svg" xmlns:xlink="http://www.w3.org/1999/xlink" x="0px" y="0px"
	 viewBox="0 0 204.481 204.481" style="enable-background:new 0 0 204.481 204.481;" xml:space="preserve">
<g>
	<path d="M162.116,38.31c0.163-0.215,0.315-0.438,0.454-0.67c0.033-0.055,0.068-0.109,0.1-0.164
		c0.156-0.276,0.297-0.561,0.419-0.857c0.014-0.034,0.024-0.069,0.038-0.104c0.102-0.26,0.188-0.528,0.261-0.801
		c0.019-0.069,0.037-0.137,0.053-0.207c0.068-0.288,0.124-0.581,0.157-0.881c0.002-0.017,0.006-0.034,0.008-0.052
		c0.028-0.262,0.043-0.527,0.043-0.796V7.5c0-4.142-3.358-7.5-7.5-7.5H48.332c-4.142,0-7.5,3.358-7.5,7.5v26.279
		c0,0.269,0.016,0.534,0.043,0.796c0.002,0.017,0.006,0.034,0.008,0.052c0.034,0.3,0.089,0.593,0.157,0.881
		c0.016,0.069,0.035,0.138,0.053,0.207c0.073,0.273,0.159,0.541,0.261,0.801c0.013,0.034,0.024,0.069,0.038,0.104
		c0.121,0.296,0.262,0.581,0.419,0.857c0.032,0.056,0.067,0.109,0.1,0.164c0.14,0.232,0.291,0.455,0.454,0.67
		c0.027,0.035,0.047,0.074,0.074,0.109l50.255,63.821l-50.255,63.821c-0.028,0.035-0.047,0.074-0.074,0.109
		c-0.163,0.215-0.315,0.438-0.454,0.67c-0.033,0.055-0.068,0.109-0.1,0.164c-0.156,0.276-0.297,0.561-0.419,0.857
		c-0.014,0.034-0.024,0.069-0.038,0.104c-0.102,0.26-0.188,0.528-0.261,0.801c-0.019,0.069-0.037,0.137-0.053,0.207
		c-0.068,0.288-0.124,0.581-0.157,0.881c-0.002,0.017-0.006,0.034-0.008,0.052c-0.028,0.262-0.043,0.527-0.043,0.796v26.279
		c0,4.142,3.358,7.5,7.5,7.5h107.817c4.142,0,7.5-3.358,7.5-7.5v-26.279c0-0.269-0.016-0.534-0.043-0.796
		c-0.002-0.017-0.006-0.034-0.008-0.052c-0.034-0.3-0.089-0.593-0.157-0.881c-0.016-0.069-0.035-0.138-0.053-0.207
		c-0.073-0.273-0.159-0.541-0.261-0.801c-0.013-0.034-0.024-0.069-0.038-0.104c-0.121-0.296-0.262-0.581-0.419-0.857
		c-0.032-0.056-0.067-0.109-0.1-0.164c-0.14-0.232-0.291-0.455-0.454-0.67c-0.027-0.035-0.047-0.074-0.074-0.109l-50.255-63.821
		l50.255-63.821C162.07,38.385,162.089,38.346,162.116,38.31z M148.649,15v11.279H55.832V15H148.649z M55.832,189.481v-11.279
		h92.817v11.279H55.832z M140.698,163.202H63.784l38.457-48.838L140.698,163.202z M102.241,90.118L63.784,41.279h76.914
		L102.241,90.118z"/>
</g>
<g>
</g>
<g>
</g>
<g>
</g>
<g>
</g>
<g>
</g>
<g>
</g>
<g>
</g>
<g>
</g>
<g>
</g>
<g>
</g>
<g>
</g>
<g>
</g>
<g>
</g>
<g>
</g>
<g>
</g>
</svg>
